<svg width="1381" height="343" viewBox="0 0 1381 343" fill="none" xmlns="http://www.w3.org/2000/svg">
<path d="M334.23 171.232H326.02C326.02 207.046 313.602 241.752 290.882 269.436C268.162 297.12 236.546 316.071 201.42 323.058C166.295 330.045 129.833 324.636 98.248 307.754C66.663 290.871 41.9089 263.559 28.2036 230.472C14.4982 197.384 12.6895 160.568 23.0856 126.296C33.4818 92.0246 55.4395 62.4179 85.2176 42.5208C114.996 22.6237 150.752 13.6672 186.393 17.1775C222.034 20.6879 255.356 36.4477 280.68 61.7719C295.079 76.1283 306.497 93.1898 314.279 111.975C322.06 130.76 326.05 150.899 326.02 171.232H342.44C342.443 131.619 328.71 93.2303 303.581 62.6075C278.453 31.9846 243.484 11.0222 204.632 3.29197C165.781 -4.43821 125.451 1.54218 90.5143 20.2141C55.5778 38.886 28.1965 69.0941 13.0358 105.691C-2.12482 142.288 -4.1267 183.01 7.37125 220.918C18.8692 258.826 43.1556 291.574 76.0922 313.582C109.029 335.591 148.578 345.498 188 341.616C227.422 337.734 264.279 320.302 292.29 292.292C308.211 276.411 320.837 257.541 329.443 236.765C338.049 215.99 342.466 193.719 342.44 171.232H334.23Z" fill="url(#paint0_linear_590_2)"/>
<path d="M277.02 203.932L260.48 213.762C255.707 216.749 251.98 217.718 249.3 216.672C246.62 215.625 245.287 210.625 245.3 201.672V52.3518L238.59 47.8818L217.59 54.1418V108.692C217.577 123.081 215.468 137.391 211.33 151.172C207.539 164.272 202.209 176.877 195.45 188.722C189.043 199.748 182.043 208.618 174.45 215.332C166.857 222.045 159.627 225.399 152.76 225.392C145.9 225.392 141.803 223.005 140.47 218.232C139.054 212.835 138.381 207.27 138.47 201.692V85.4418C138.47 74.4085 136.607 65.3918 132.88 58.3918C129.153 51.3918 122.37 47.8885 112.53 47.8818L73.1602 85.4418L77.6302 91.7018L94.1602 81.8618C98.9268 78.8885 102.653 77.9218 105.34 78.9618C108.027 80.0018 109.36 84.8452 109.34 93.4918V214.232C109.34 214.522 109.34 214.802 109.34 215.092C109.34 217.912 109.34 220.892 109.34 224.092C109.38 234.052 108.272 243.984 106.04 253.692C104.15 261.822 101.98 269.882 100.11 278.012C98.7802 283.832 98.6501 289.702 100.9 295.382C102.9 300.442 105.9 304.752 111.39 306.432C124.06 310.302 136.5 300.272 134.69 285.932C133.963 280.468 132.724 275.084 130.99 269.852C128.306 261.675 126.358 253.275 125.17 244.752C129.634 246.593 134.433 247.482 139.26 247.362C147.584 247.362 155.787 245.366 163.18 241.542C171.127 237.419 178.37 232.062 184.64 225.672C191.57 218.696 197.717 210.984 202.97 202.672C208.581 193.853 213.444 184.581 217.51 174.952V218.772C217.51 227.712 219.073 234.712 222.2 239.772C225.327 244.832 231.96 247.369 242.1 247.382L281.94 210.232L277.02 203.932Z" fill="url(#paint1_linear_590_2)"/>
<path d="M487.95 205.162V115.962H508.37V205.162C508.37 210.822 506.122 216.25 502.12 220.252C498.118 224.254 492.69 226.502 487.03 226.502H419.16C416.352 226.519 413.569 225.979 410.972 224.913C408.374 223.847 406.014 222.276 404.028 220.291C402.043 218.306 400.47 215.946 399.403 213.349C398.336 210.753 397.794 207.97 397.81 205.162V115.962H418.08V205.162C418.07 205.306 418.09 205.451 418.141 205.586C418.192 205.721 418.271 205.844 418.374 205.946C418.476 206.047 418.6 206.126 418.736 206.175C418.871 206.224 419.016 206.244 419.16 206.232H487.02C487.64 206.232 487.95 205.882 487.95 205.162Z" fill="white"/>
<path d="M571.63 115.962H660.63C663.452 115.915 666.254 116.442 668.867 117.509C671.479 118.577 673.848 120.163 675.83 122.172C677.87 124.122 679.485 126.473 680.574 129.076C681.663 131.68 682.203 134.48 682.16 137.302V205.162C682.208 207.981 681.675 210.779 680.593 213.383C679.51 215.986 677.903 218.338 675.87 220.292C673.888 222.301 671.519 223.887 668.907 224.954C666.294 226.022 663.492 226.548 660.67 226.502H571.67L571.63 115.962ZM661.75 205.162V137.302C661.762 137.158 661.743 137.013 661.693 136.877C661.644 136.741 661.566 136.618 661.464 136.515C661.362 136.413 661.24 136.333 661.104 136.283C660.969 136.232 660.824 136.211 660.68 136.222H592.97C592.825 136.21 592.679 136.229 592.543 136.279C592.406 136.329 592.282 136.408 592.18 136.511C592.077 136.614 591.998 136.738 591.948 136.875C591.898 137.011 591.878 137.157 591.89 137.302V205.162C591.878 205.307 591.898 205.453 591.948 205.589C591.998 205.726 592.077 205.85 592.18 205.952C592.282 206.055 592.406 206.134 592.543 206.184C592.679 206.234 592.825 206.254 592.97 206.242H660.68C660.824 206.252 660.969 206.232 661.104 206.181C661.24 206.13 661.362 206.051 661.464 205.948C661.566 205.846 661.644 205.722 661.693 205.586C661.743 205.451 661.762 205.306 661.75 205.162V205.162Z" fill="white"/>
<path d="M767.08 115.962H834.79C837.612 115.915 840.414 116.442 843.026 117.509C845.639 118.577 848.008 120.163 849.99 122.172C852.026 124.124 853.636 126.475 854.72 129.079C855.805 131.682 856.339 134.482 856.29 137.302V226.502H835.86V189.352H766V226.502H745.74V137.302C745.724 134.495 746.265 131.713 747.332 129.117C748.399 126.52 749.97 124.161 751.955 122.177C753.94 120.192 756.299 118.621 758.895 117.554C761.491 116.487 764.273 115.946 767.08 115.962V115.962ZM766 169.082H835.86V137.302C835.872 137.158 835.853 137.013 835.803 136.877C835.754 136.741 835.676 136.618 835.574 136.515C835.472 136.413 835.35 136.333 835.214 136.283C835.079 136.232 834.934 136.211 834.79 136.222H767.08C766.935 136.21 766.789 136.229 766.653 136.279C766.516 136.329 766.392 136.408 766.29 136.511C766.187 136.614 766.108 136.738 766.058 136.875C766.008 137.011 765.988 137.157 766 137.302V169.082Z" fill="white"/>
<path d="M914.32 115.962H1024.87V136.232H979.87V226.512H959.46V136.232H914.32V115.962Z" fill="white"/>
<path d="M1172.26 205.162V115.962H1192.68V205.162C1192.68 210.822 1190.43 216.25 1186.43 220.252C1182.43 224.254 1177 226.502 1171.34 226.502H1103.48C1100.67 226.521 1097.89 225.981 1095.29 224.915C1092.69 223.85 1090.33 222.278 1088.35 220.293C1086.36 218.308 1084.79 215.948 1083.73 213.35C1082.66 210.753 1082.12 207.97 1082.14 205.162V115.962H1102.4V205.162C1102.39 205.307 1102.41 205.453 1102.46 205.589C1102.51 205.726 1102.59 205.85 1102.69 205.953C1102.79 206.055 1102.92 206.134 1103.05 206.184C1103.19 206.234 1103.34 206.254 1103.48 206.242H1171.34C1171.96 206.232 1172.26 205.882 1172.26 205.162Z" fill="white"/>
<path d="M1317.97 163.862L1358.04 115.962H1380.3V226.502H1359.88V145.442L1317.97 195.342L1275.9 145.442V226.502H1255.63V115.962H1277.74L1317.97 163.862Z" fill="white"/>
<defs>
<linearGradient id="paint0_linear_590_2" x1="19.85" y1="87.0119" x2="304.57" y2="245.422" gradientUnits="userSpaceOnUse">
<stop stop-color="#1A73EE"/>
<stop offset="1" stop-color="#5745C6"/>
</linearGradient>
<linearGradient id="paint1_linear_590_2" x1="18.1601" y1="90.0418" x2="302.88" y2="248.462" gradientUnits="userSpaceOnUse">
<stop stop-color="#1A73EE"/>
<stop offset="1" stop-color="#5745C6"/>
</linearGradient>
</defs>
</svg>
