<svg width="2000" height="2000" viewBox="0 0 2000 2000" fill="none" xmlns="http://www.w3.org/2000/svg">
<path d="M644.07 1000H635.86C635.86 1035.81 623.442 1070.52 600.722 1098.2C578.002 1125.89 546.386 1144.84 511.26 1151.83C476.134 1158.81 439.673 1153.4 408.088 1136.52C376.503 1119.64 351.749 1092.33 338.043 1059.24C324.338 1026.15 322.529 989.336 332.925 955.064C343.322 920.793 365.279 891.186 395.057 871.289C424.835 851.392 460.591 842.435 496.233 845.946C531.874 849.456 565.196 865.216 590.52 890.54C604.919 904.896 616.337 921.958 624.118 940.743C631.9 959.529 635.89 979.667 635.86 1000H652.28C652.283 960.387 638.55 921.998 613.421 891.376C588.293 860.753 553.324 839.79 514.472 832.06C475.621 824.33 435.291 830.31 400.354 848.982C365.418 867.654 338.036 897.862 322.876 934.459C307.715 971.056 305.713 1011.78 317.211 1049.69C328.709 1087.59 352.995 1120.34 385.932 1142.35C418.869 1164.36 458.417 1174.27 497.84 1170.38C537.262 1166.5 574.119 1149.07 602.13 1121.06C618.051 1105.18 630.677 1086.31 639.283 1065.53C647.889 1044.76 652.306 1022.49 652.28 1000H644.07Z" fill="url(#paint0_linear_587_2)"/>
<path d="M586.86 1032.7L570.32 1042.53C565.547 1045.52 561.82 1046.49 559.14 1045.44C556.46 1044.39 555.127 1039.39 555.14 1030.44V881.12L548.43 876.65L527.43 882.91V937.46C527.417 951.849 525.308 966.159 521.17 979.94C517.379 993.04 512.049 1005.64 505.29 1017.49C498.883 1028.52 491.883 1037.39 484.29 1044.1C476.697 1050.81 469.467 1054.17 462.6 1054.16C455.74 1054.16 451.643 1051.77 450.31 1047C448.894 1041.6 448.221 1036.04 448.31 1030.46V914.21C448.31 903.177 446.447 894.16 442.72 887.16C438.993 880.16 432.21 876.657 422.37 876.65L383 914.21L387.47 920.47L404 910.63C408.767 907.657 412.493 906.69 415.18 907.73C417.867 908.77 419.2 913.613 419.18 922.26V1043C419.18 1043.29 419.18 1043.57 419.18 1043.86C419.18 1046.68 419.18 1049.66 419.18 1052.86C419.22 1062.82 418.112 1072.75 415.88 1082.46C413.99 1090.59 411.82 1098.65 409.95 1106.78C408.62 1112.6 408.49 1118.47 410.74 1124.15C412.74 1129.21 415.74 1133.52 421.23 1135.2C433.9 1139.07 446.34 1129.04 444.53 1114.7C443.803 1109.24 442.564 1103.85 440.83 1098.62C438.146 1090.44 436.198 1082.04 435.01 1073.52C439.474 1075.36 444.273 1076.25 449.1 1076.13C457.424 1076.13 465.626 1074.13 473.02 1070.31C480.967 1066.19 488.21 1060.83 494.48 1054.44C501.41 1047.46 507.557 1039.75 512.81 1031.44C518.421 1022.62 523.284 1013.35 527.35 1003.72V1047.54C527.35 1056.48 528.913 1063.48 532.04 1068.54C535.167 1073.6 541.8 1076.14 551.94 1076.15L591.78 1039L586.86 1032.7Z" fill="url(#paint1_linear_587_2)"/>
<path d="M797.79 1033.93V944.73H818.21V1033.93C818.21 1039.59 815.962 1045.02 811.96 1049.02C807.958 1053.02 802.53 1055.27 796.87 1055.27H729C726.192 1055.29 723.409 1054.75 720.812 1053.68C718.214 1052.61 715.854 1051.04 713.868 1049.06C711.882 1047.07 710.31 1044.71 709.243 1042.12C708.175 1039.52 707.634 1036.74 707.65 1033.93V944.73H727.92V1033.93C727.909 1034.07 727.93 1034.22 727.981 1034.35C728.031 1034.49 728.111 1034.61 728.213 1034.71C728.316 1034.82 728.44 1034.89 728.575 1034.94C728.711 1034.99 728.856 1035.01 729 1035H796.86C797.48 1035 797.79 1034.65 797.79 1033.93Z" fill="white"/>
<path d="M881.47 944.73H970.47C973.292 944.683 976.094 945.21 978.706 946.277C981.319 947.345 983.688 948.931 985.67 950.94C987.71 952.89 989.325 955.241 990.414 957.844C991.503 960.448 992.043 963.248 992 966.07V1033.93C992.048 1036.75 991.515 1039.55 990.432 1042.15C989.35 1044.75 987.743 1047.11 985.71 1049.06C983.728 1051.07 981.359 1052.66 978.746 1053.72C976.134 1054.79 973.332 1055.32 970.51 1055.27H881.51L881.47 944.73ZM971.59 1033.93V966.07C971.602 965.926 971.583 965.781 971.533 965.645C971.484 965.51 971.406 965.386 971.304 965.283C971.202 965.181 971.079 965.101 970.944 965.051C970.809 965 970.664 964.979 970.52 964.99H902.81C902.665 964.978 902.519 964.997 902.383 965.047C902.246 965.097 902.122 965.176 902.019 965.279C901.917 965.382 901.837 965.506 901.787 965.643C901.737 965.779 901.718 965.925 901.73 966.07V1033.93C901.718 1034.07 901.737 1034.22 901.787 1034.36C901.837 1034.49 901.917 1034.62 902.019 1034.72C902.122 1034.82 902.246 1034.9 902.383 1034.95C902.519 1035 902.665 1035.02 902.81 1035.01H970.52C970.664 1035.02 970.809 1035 970.944 1034.95C971.079 1034.9 971.202 1034.82 971.304 1034.72C971.406 1034.61 971.484 1034.49 971.533 1034.35C971.583 1034.22 971.602 1034.07 971.59 1033.93V1033.93Z" fill="white"/>
<path d="M1076.92 944.73H1144.63C1147.45 944.683 1150.25 945.21 1152.87 946.277C1155.48 947.345 1157.85 948.931 1159.83 950.94C1161.87 952.892 1163.48 955.243 1164.56 957.847C1165.64 960.45 1166.18 963.25 1166.13 966.07V1055.27H1145.7V1018.12H1075.84V1055.27H1055.58V966.07C1055.56 963.263 1056.11 960.481 1057.17 957.885C1058.24 955.288 1059.81 952.929 1061.79 950.945C1063.78 948.96 1066.14 947.389 1068.73 946.322C1071.33 945.255 1074.11 944.714 1076.92 944.73V944.73ZM1075.84 997.85H1145.7V966.07C1145.71 965.926 1145.69 965.781 1145.64 965.645C1145.59 965.51 1145.52 965.386 1145.41 965.283C1145.31 965.181 1145.19 965.101 1145.05 965.051C1144.92 965 1144.77 964.979 1144.63 964.99H1076.92C1076.78 964.978 1076.63 964.997 1076.49 965.047C1076.36 965.097 1076.23 965.176 1076.13 965.279C1076.03 965.382 1075.95 965.506 1075.9 965.643C1075.85 965.779 1075.83 965.925 1075.84 966.07V997.85Z" fill="white"/>
<path d="M1224.16 944.73H1334.71V965H1289.71V1055.28H1269.3V965H1224.16V944.73Z" fill="white"/>
<path d="M1482.1 1033.93V944.73H1502.52V1033.93C1502.52 1039.59 1500.27 1045.02 1496.27 1049.02C1492.27 1053.02 1486.84 1055.27 1481.18 1055.27H1413.32C1410.51 1055.29 1407.73 1054.75 1405.13 1053.68C1402.53 1052.62 1400.17 1051.05 1398.19 1049.06C1396.2 1047.08 1394.63 1044.72 1393.57 1042.12C1392.5 1039.52 1391.96 1036.74 1391.98 1033.93V944.73H1412.24V1033.93C1412.23 1034.07 1412.25 1034.22 1412.3 1034.36C1412.35 1034.49 1412.43 1034.62 1412.53 1034.72C1412.63 1034.82 1412.76 1034.9 1412.89 1034.95C1413.03 1035 1413.18 1035.02 1413.32 1035.01H1481.18C1481.8 1035 1482.1 1034.65 1482.1 1033.93Z" fill="white"/>
<path d="M1627.81 992.63L1667.88 944.73H1690.14V1055.27H1669.72V974.21L1627.81 1024.11L1585.74 974.21V1055.27H1565.47V944.73H1587.58L1627.81 992.63Z" fill="white"/>
<defs>
<linearGradient id="paint0_linear_587_2" x1="329.69" y1="915.78" x2="614.41" y2="1074.19" gradientUnits="userSpaceOnUse">
<stop stop-color="#1A73EE"/>
<stop offset="1" stop-color="#5745C6"/>
</linearGradient>
<linearGradient id="paint1_linear_587_2" x1="328" y1="918.81" x2="612.72" y2="1077.23" gradientUnits="userSpaceOnUse">
<stop stop-color="#1A73EE"/>
<stop offset="1" stop-color="#5745C6"/>
</linearGradient>
</defs>
</svg>
